# xmcd
#
# Track frame offsets:
# 150
# 15995
# 33242
# 45955
# 62287
# 81100
# 96977
# 111590
#
# Disc length: 1644 seconds
#
#
# Revision: 0
# Processed by: cddbd v1.4PL0 Copyright (c) Steve Scherf et al.
# Submitted via: FreeRIP 2.12 
#
DISCID=54066a08
DTITLE=Scooter Lee - The Honky Tonk Twist and Then Some...
DYEAR=1900
DGENRE=
TTITLE0=Honky Tonk Twist
TTITLE1=Be-Bop-A-Lula
TTITLE2=Well Oiled Lovin' Machine
TTITLE3=I Love The Nightlife
TTITLE4=Honky Tonk Twist (Dance Mix)
TTITLE5=Deal With It
TTITLE6=I'll Two-Step Alone
TTITLE7=Where's Hank Williams When You Need Him?
EXTD=
EXTT0=
EXTT1=
EXTT2=
EXTT3=
EXTT4=
EXTT5=
EXTT6=
EXTT7=
PLAYORDER=
